<svg viewBox="0 0 1024 1024" xmlns="http://www.w3.org/2000/svg"><path d="m864 518h-358v-358c0-4.4-3.6-8-8-8h-26a398.46 398.46 0 0 0 -282.8 117.1 398.19 398.19 0 0 0 -85.7 127.1 397.61 397.61 0 0 0 -31.5 155.8 398.46 398.46 0 0 0 117.1 282.8c36.7 36.7 79.5 65.6 127.1 85.7a397.61 397.61 0 0 0 155.8 31.5 398.46 398.46 0 0 0 282.8-117.1c36.7-36.7 65.6-79.5 85.7-127.1a397.61 397.61 0 0 0 31.5-155.8v-26c0-4.4-3.6-8-8-8zm-158.3 269.8a331.59 331.59 0 0 1 -235.3 96.2c-88.1-.4-170.9-34.9-233.2-97.2-62.7-62.7-97.2-146.1-97.2-234.8s34.5-172.1 97.2-234.8c54.6-54.6 124.9-87.9 200.8-95.5v364.3h364.3c-7.7 76.3-41.3 147-96.6 201.8zm246.3-325.4-2.6-28.2c-8.5-92.1-49.4-179-115.2-244.6a399.4 399.4 0 0 0 -245.2-115l-28.3-2.6c-4.7-.4-8.7 3.2-8.7 7.9v384.1c0 4.4 3.6 8 8 8l384-1c4.7 0 8.4-4 8-8.6zm-332.2-58.2v-256.6a332.24 332.24 0 0 1 166.4 89.8c45.7 45.6 77 103.6 90 166.1z"/></svg>