<svg height="24" viewBox="0 0 24 24" width="24" xmlns="http://www.w3.org/2000/svg"><path d="m16 2c.2652165 0 .5195704.10535684.7071068.29289322l5 5c.1875364.18753638.2928932.44189029.2928932.70710678v7c0 .2339365-.0820162.4604694-.2317787.6401844l-5 6c-.1899938.2279926-.4714415.3598156-.7682213.3598156h-8c-.26521649 0-.5195704-.1053568-.70710678-.2928932l-5-5c-.18753638-.1875364-.29289322-.4418903-.29289322-.7071068v-8c0-.26521649.10535684-.5195704.29289322-.70710678l5-5c.18753638-.18753638.44189029-.29289322.70710678-.29289322zm-.4142136 2h-7.17157284l-4.41421356 4.41421356v7.17157284l4.41421356 4.4142136h7.11741154l4.4683749-5.3620499v-6.22373654zm-3.5857864 12c.5522847 0 1 .4477153 1 1s-.4477153 1-1 1-1-.4477153-1-1 .4477153-1 1-1zm0-10c.5522847 0 1 .44771525 1 1v6c0 .5522847-.4477153 1-1 1s-1-.4477153-1-1v-6c0-.55228475.4477153-1 1-1z" fill-rule="evenodd"/></svg>